<?xml version="1.0" encoding="UTF-8" standalone="no"?>
<svg
   xmlns:dc="http://purl.org/dc/elements/1.1/"
   xmlns:cc="http://creativecommons.org/ns#"
   xmlns:rdf="http://www.w3.org/1999/02/22-rdf-syntax-ns#"
   xmlns:svg="http://www.w3.org/2000/svg"
   xmlns="http://www.w3.org/2000/svg"
   id="svg1023"
   version="1.1"
   viewBox="0 0 95 95"
   height="95mm"
   width="95mm">
  <defs
     id="defs1017" />
  <metadata
     id="metadata1020">
    <rdf:RDF>
      <cc:Work
         rdf:about="">
        <dc:format>image/svg+xml</dc:format>
        <dc:type
           rdf:resource="http://purl.org/dc/dcmitype/StillImage" />
        <dc:title></dc:title>
      </cc:Work>
    </rdf:RDF>
  </metadata>
  <g
     transform="translate(-41.173084,-67.844779)"
     id="layer1">
    <path
       transform="matrix(0.26458333,0,0,0.26458333,41.173084,67.844779)"
       id="rect867"
       d="M 9.3847656 8.2421875 L 9.3847656 11.947266 L 9.3847656 207.09766 L 9.3730469 207.09766 L 9.3730469 214.67773 L 9.3847656 214.67773 L 9.3847656 348.39844 L 349.54297 348.39844 L 349.54297 8.2421875 L 9.3847656 8.2421875 z M 16.796875 15.652344 L 342.13867 15.652344 L 342.13867 207.09766 L 16.796875 207.09766 L 16.796875 15.652344 z M 16.796875 214.67773 L 342.13867 214.67773 L 342.13867 340.99609 L 16.796875 340.99609 L 16.796875 214.67773 z "
       style="color:#000000;font-style:normal;font-variant:normal;font-weight:normal;font-stretch:normal;font-size:medium;line-height:normal;font-family:sans-serif;font-variant-ligatures:normal;font-variant-position:normal;font-variant-caps:normal;font-variant-numeric:normal;font-variant-alternates:normal;font-feature-settings:normal;text-indent:0;text-align:start;text-decoration:none;text-decoration-line:none;text-decoration-style:solid;text-decoration-color:#000000;letter-spacing:normal;word-spacing:normal;text-transform:none;writing-mode:lr-tb;direction:ltr;text-orientation:mixed;dominant-baseline:auto;baseline-shift:baseline;text-anchor:start;white-space:normal;shape-padding:0;clip-rule:nonzero;display:inline;overflow:visible;visibility:visible;opacity:1;isolation:auto;mix-blend-mode:normal;color-interpolation:sRGB;color-interpolation-filters:linearRGB;solid-color:#000000;solid-opacity:1;vector-effect:none;fill:#ffffff;fill-opacity:1;fill-rule:nonzero;stroke:none;stroke-width:7.40807629;stroke-linecap:butt;stroke-linejoin:miter;stroke-miterlimit:4;stroke-dasharray:none;stroke-dashoffset:0;stroke-opacity:1;color-rendering:auto;image-rendering:auto;shape-rendering:auto;text-rendering:auto;enable-background:accumulate" />
    <path
       id="rect839-8"
       d="m 45.312112,71.849632 v 51.040778 h 13.893706 c -0.386787,-0.37035 -0.759894,-0.65745 -1.102614,-0.83209 -0.925159,-0.47137 -6.136683,-1.50843 -10.292802,-2.04803 -3.519382,-0.47035 -2.739796,-1.30775 -0.539596,-0.96379 1.930679,0.30409 5.619649,0.9062 8.328981,1.35992 2.45522,0.41116 3.661992,0.97714 5.055278,2.48399 h 3.732119 c -2.018132,-3.03541 -2.85079,-3.94052 -4.476386,-4.86793 -2.073431,-1.1829 -4.059518,-1.71114 -7.522431,-1.99955 -6.419059,-0.71078 -10.525684,-2.27457 -1.757057,-1.00258 5.959525,0.56315 6.690228,0.70538 8.792988,1.71214 2.660148,1.27361 3.641001,2.17654 5.542796,5.10276 0.213175,0.32802 0.459087,0.68763 0.71876,1.05516 h 2.535028 c -0.597009,-0.86661 -1.165214,-1.81863 -1.695811,-2.85103 -0.801689,-1.55992 -1.667983,-2.71965 -3.330375,-4.45853 -3.682767,-3.85227 -5.364096,-4.54106 -11.794107,-4.83423 -2.176314,0.49167 -6.448192,-0.54361 -5.944025,-1.4809 0.516224,0.10529 1.544938,0.31554 2.286458,0.46709 0.74149,0.15154 2.656117,0.27719 4.254843,0.27923 3.410607,0.005 5.422882,0.41713 7.947646,1.63149 2.614648,1.25759 6.004817,4.89137 7.875149,8.44077 0.634646,1.20441 1.1159,1.99307 1.765236,2.80611 h 3.064923 c -0.350781,-0.65602 -0.749828,-1.40139 -0.934692,-1.74431 -0.222658,-0.41298 -0.778475,-1.71722 -1.234846,-2.8985 -0.456351,-1.18128 -1.332049,-3.03018 -1.945951,-4.10885 -1.051049,-1.84681 -1.264194,-2.05931 -3.654514,-3.63819 -3.042707,-2.00977 -4.324782,-2.37476 -9.600575,-2.73259 -5.18906,-0.35195 -7.778202,-1.12868 -9.776182,-2.93372 0,0 -0.06381,-1.67517 1.018411,-0.45433 0.484544,0.58384 2.36917,1.47443 4.127214,1.95055 0.825971,0.22369 3.170543,0.52337 5.209954,0.66616 5.536325,0.38761 6.731726,0.72755 9.819578,2.79232 1.424303,0.95243 2.829038,2.06806 3.121566,2.47889 0.642272,0.90197 2.99699,5.84404 3.002147,6.30085 0.003,0.271 0.557565,1.44027 2.041909,4.32172 h 2.597815 c -0.09987,-0.13681 -0.201924,-0.26903 -0.30781,-0.39308 -0.606414,-0.71043 -1.267929,-1.61147 -1.470179,-2.0026 -0.203475,-0.39343 -0.537206,-2.3993 -0.746825,-4.48967 -0.496437,-4.9503 -0.735455,-5.97377 -1.65601,-7.09055 -0.823432,-0.99899 -2.931862,-2.16407 -5.969038,-3.29923 -1.834602,-0.6857 -2.027378,-0.7048 -8.509686,-0.84485 -6.230972,-0.13461 -6.708177,-0.17865 -7.883822,-0.72028 -1.717849,-0.79142 -2.526177,-1.62733 -3.554989,-3.67801 -0.111403,-0.702888 -1.054663,-2.171555 -0.916852,-3.294625 0.431428,0.364156 1.241168,1.541115 1.799939,2.615181 1.169006,2.246984 1.424886,2.515584 3.297203,3.466164 l 1.37674,0.69884 5.380967,-0.0617 c 6.867664,-0.0786 8.239928,0.16283 12.414351,2.18077 2.561858,1.23842 3.174129,1.64598 3.725975,2.47991 0.752238,1.13671 1.246947,3.56254 1.639158,8.03647 0.264078,3.01229 0.722692,4.25426 1.994444,5.40444 0.27857,0.25195 0.532819,0.57804 0.773387,0.99288 h 1.256273 c -0.773507,-1.45171 -1.447153,-2.77096 -1.56921,-3.08584 -0.525974,-1.35684 -0.697245,-6.75444 -0.318024,-10.01509 0.449723,-3.86698 0.272762,-4.73279 -1.182264,-5.78679 -0.558977,-0.40492 -1.877543,-1.06832 -2.930163,-1.47426 -1.052629,-0.40592 -2.476548,-1.0193 -3.164458,-1.36248 -0.68791,-0.34318 -2.042097,-0.8621 -3.008755,-1.15369 -2.315046,-0.698282 -4.254092,-0.448102 -7.313138,0.94338 -4.295404,1.95385 -7.476715,2.06902 -9.784866,0.35427 -1.117076,-0.8299 -1.679037,-1.799461 -2.429359,-4.191549 -2.770916,-5.584544 -2.266634,-8.188515 0.876488,-0.875984 0.939187,3.057357 1.559381,3.990943 3.168558,4.769923 2.1077,1.02032 4.463336,0.72301 8.430551,-1.06333 3.126288,-1.407688 5.151009,-1.66253 7.521414,-0.947455 0.983876,0.296806 2.3521,0.822484 3.040405,1.168495 0.688305,0.34599 2.075239,0.94831 3.08226,1.33848 1.007031,0.39017 2.380382,1.06208 3.052171,1.49315 1.626998,1.04405 1.890839,1.84751 1.596256,4.8618 -0.348291,3.56371 -0.274589,9.85896 0.12914,11.02993 0.182859,0.53035 1.057431,2.29977 1.971487,3.99704 h 2.689703 l -0.02144,-0.0306 c -0.558928,-0.80475 -1.400111,-2.00247 -1.869393,-2.66165 -0.725913,-1.01961 -0.867104,-1.44936 -0.945904,-2.87859 -0.174363,-3.16263 0.81384,-6.03767 3.219076,-9.36422 1.603161,-2.21727 1.988833,-3.00333 1.988833,-4.05269 0,-1.43641 -0.762117,-2.01636 -4.803607,-3.65453 -2.022597,-0.819829 -6.096271,-2.732095 -9.052828,-4.249739 -2.956598,-1.517644 -5.64719,-2.759652 -5.978738,-2.759652 -0.869771,0 -2.581575,1.220098 -4.382986,3.123621 -3.484241,3.68181 -7.443216,4.1542 -10.101872,1.20524 -0.932943,-1.034819 -1.695485,-2.964154 -2.217508,-5.611697 -0.399787,-2.027486 -1.480264,-3.622696 -2.679518,-3.955706 -1.143103,-0.377358 -0.877914,-1.233388 1.182787,-0.455343 1.401652,0.706817 2.263787,2.214435 2.869401,5.017503 0.723739,3.349648 1.564112,4.756871 3.399781,5.693371 2.138648,1.091057 4.151169,0.294988 7.625541,-3.01489 3.893404,-3.709053 4.016221,-3.70924 11.190727,-0.02045 2.923238,1.503034 6.891815,3.364199 8.819037,4.135898 4.128686,1.653184 5.131341,2.464774 5.131341,4.153274 0,1.19973 -0.366043,1.97226 -2.128691,4.4963 -1.790801,2.56437 -2.301513,3.64756 -2.892378,6.13545 -0.739772,3.11486 -0.570427,3.79825 1.693776,6.83735 0.479792,0.644 0.952838,1.35052 1.294571,1.91175 h 8.568887 c 0.143049,-0.10392 0.287056,-0.20768 0.4329,-0.30936 1.30683,-0.91113 3.074911,-2.31023 3.929163,-3.10932 3.786667,-3.54224 4.629647,-8.09291 2.316035,-12.50215 -0.407415,-0.77648 -1.05511,-1.71288 -1.439033,-2.0807 -0.383943,-0.36785 -2.880554,-1.80181 -5.548416,-3.18693 -3.569413,-1.853247 -5.818304,-2.834762 -8.51426,-3.716299 -4.259861,-1.39289 -8.848919,-3.504225 -11.08403,-5.099177 -2.878815,-2.054267 -4.828154,-4.431854 -6.894038,-8.408611 -2.419402,-4.657307 -3.415132,-6.16936 -4.911311,-7.457076 -2.885374,-2.483285 -5.17527,-2.693655 -7.546436,-0.694252 -0.445959,0.37604 -1.450599,1.66011 -2.232315,2.853576 -2.461068,3.757457 -3.53141,5.010104 -4.851595,5.679077 -1.615968,1.056587 -1.226982,0.273633 -0.664627,-0.473213 1.475068,-0.652348 2.099579,-1.348517 4.293112,-4.787781 1.759328,-2.758398 2.903481,-3.988631 4.445268,-4.777577 2.289797,-1.171704 4.867747,-0.63277 7.418778,1.550835 1.40829,1.205438 2.57547,2.980642 4.919993,7.481585 1.80308,3.4615 2.133739,3.929913 4.235976,6.006812 1.25403,1.238936 2.932988,2.637131 3.731091,3.107282 2.114555,1.245643 7.247793,3.395266 9.955357,4.168575 1.530446,0.437108 4.171993,1.58701 7.589288,3.303824 6.8403,3.43649 8.07855,4.61938 9.02222,8.622 0.52246,2.21606 0.45974,3.81396 -0.22614,5.75718 -1.00826,2.85662 -2.939271,5.05621 -7.115581,8.0717 h 2.10522 c 0.766275,-0.65475 1.819053,-1.51718 2.701449,-2.20782 3.315462,-2.59502 4.825782,-4.70171 5.538702,-7.72559 0.85616,-3.63138 0.28693,-6.20648 -1.89539,-8.57402 C 99.655115,101.22686 91.136359,96.634795 83.312647,94.004935 80.529001,93.069236 73.959506,89.90137 72.211755,88.652052 70.739611,87.599738 69.622228,86.086015 68.115164,83.102124 66.2734,79.455581 65.389365,78.195249 61.96388,74.33158 c -1.128258,-1.272611 -2.460594,-1.684728 -5.557563,-1.719292 -3.03273,-0.03378 -4.180884,0.627376 -8.384132,4.827088 -5.78207,6.176609 -0.46035,-1.1932 2.529446,-3.474314 1.047237,-0.778425 2.421259,-1.560232 3.053159,-1.737163 1.353792,-0.379035 5.768862,-0.236572 7.306994,0.23584 1.926283,0.591634 5.715874,5.197643 8.146231,9.901251 2.057754,3.982417 2.690573,4.843782 4.356442,5.930235 2.273192,1.482566 8.239542,4.331746 10.649095,5.085397 4.695942,1.468766 12.081528,5.02013 15.768188,7.582158 3.30963,2.29998 4.29558,3.27313 5.27888,5.21045 0.77007,1.51722 0.8513,1.87838 0.8331,3.69689 -0.0207,2.08083 -0.5325,4.28023 -1.38494,5.95117 -0.72796,1.4269 -3.54258,4.27947 -6.333521,6.41876 -0.289407,0.22184 -0.558741,0.43768 -0.816241,0.65036 h 5.787802 c 0.30787,-0.30917 0.62922,-0.63064 0.99492,-0.99339 3.27471,-3.2482 4.21034,-4.33632 4.95217,-5.75974 1.71936,-3.29907 1.90975,-7.08007 0.50078,-9.9421 -0.64343,-1.30698 -1.43437,-2.24401 -3.9266,-4.65301 C 100.85621,96.842617 96.975595,94.524093 87.385758,90.59085 77.625489,86.587718 74.142197,84.38328 70.796727,80.091314 70.178203,79.297834 68.9577,77.735549 68.085054,76.620063 67.212409,75.504587 65.861175,74.000921 65.08189,73.278466 l -1.417092,-1.313464 0.778495,-5.13e-4 c 1.10702,-5.22e-4 2.552364,1.361294 5.501928,5.184423 3.170099,4.108969 4.999238,5.943926 7.623004,7.646978 2.852676,1.851652 3.857781,2.335623 10.53577,5.073148 9.618711,3.943061 13.789855,6.459913 18.795335,11.340302 4.55155,4.43781 5.33063,6.20777 4.69692,10.67207 -0.53008,3.73433 -1.35222,5.03264 -6.28296,9.92525 -0.40532,0.40219 -0.75336,0.74939 -1.08734,1.08375 h 5.76893 c 1.06042,-1.21746 2.68276,-2.94313 4.24719,-4.49732 4.35879,-4.33034 5.25666,-5.56989 5.61068,-7.74499 0.19234,-1.18188 0.13842,-1.72778 -0.32927,-3.3416 -0.30747,-1.06091 -0.97151,-2.54823 -1.47579,-3.30535 -0.50429,-0.75712 -2.73763,-3.06595 -4.96289,-5.130839 -4.14679,-3.847963 -5.61935,-5.034671 -7.37131,-5.939936 -1.20581,-0.623078 -9.44977,-3.952792 -12.299988,-4.967982 -2.713964,-0.966648 -9.45798,-4.003448 -11.653735,-5.247719 -0.967676,-0.548348 -2.731608,-1.758923 -3.919976,-2.689713 -1.188359,-0.93079 -2.74928,-2.064689 -3.468189,-2.52024 -1.471463,-0.93243 -2.329083,-1.837862 -3.817873,-4.030229 -1.009965,-1.487243 -1.016129,-1.510513 -0.41502,-1.510513 0.475347,0 0.949776,0.461404 2.145543,2.086324 1.019824,1.385857 1.889546,2.281233 2.59016,2.666232 0.580127,0.318795 2.383681,1.577972 4.007775,2.797941 3.698344,2.778086 8.972567,5.436524 15.818724,7.973686 6.657449,2.467213 11.545299,4.59537 13.388859,5.829673 2.53028,1.694042 9.77966,8.426965 10.93804,10.158545 1.28609,1.9225 2.15793,4.77669 2.00362,6.56017 -0.22349,2.58344 -0.8055,3.43341 -5.69236,8.31059 -1.83658,1.83298 -3.22276,3.29161 -4.28751,4.54327 h 7.37848 c 0.97998,-1.38078 2.13901,-2.82128 3.43449,-4.24719 3.79871,-4.18107 5.05734,-6.33009 5.35444,-9.14115 0.37263,-3.5262 -0.58494,-5.3227 -4.96035,-9.30502 -3.39435,-3.089426 -8.62523,-6.687861 -12.66548,-8.713372 -4.22967,-2.120453 -11.930445,-5.475573 -14.689574,-6.399873 -3.131,-1.048876 -5.844382,-2.286063 -7.336076,-3.345173 -0.619492,-0.439835 -2.026943,-1.403549 -3.128234,-2.141454 -1.970637,-1.320413 -4.884076,-4.110826 -6.728111,-6.444296 -0.926542,-1.17247 -0.931007,-1.188903 -0.326708,-1.188903 0.416018,0 0.838852,0.301566 1.317045,0.938773 1.487376,1.981977 4.317649,4.685352 6.238055,5.958309 1.10127,0.730002 2.509245,1.687711 3.128728,2.128187 1.558027,1.10784 4.269878,2.343783 7.179889,3.272686 5.296066,1.690565 16.257296,6.910437 20.743846,9.878285 3.76974,2.493687 8.85335,6.895831 10.7665,9.323391 1.38939,1.76297 1.6881,2.83627 1.55698,5.59383 -0.0911,1.91552 -0.21798,2.40379 -1.05467,4.05219 -0.61606,1.21376 -1.75792,2.77222 -3.24002,4.42278 -1.9599,2.18271 -3.3952,3.88397 -4.48606,5.358 h 5.01442 c 1.37081,-2.37238 2.83113,-4.4427 4.19105,-5.91237 l 1.00154,-1.08171 0.0777,0.66975 c 0.059,0.50772 -0.29069,1.13393 -1.44466,2.58609 -0.81319,1.02331 -1.69891,2.32122 -2.56923,3.73824 h 6.33657 V 71.849632 Z m 84.842668,1.676925 c 0.1575,0.01517 0.27247,0.268893 0.18173,0.541108 -0.0848,0.254348 -0.14399,0.254097 -0.30169,-9.88e-4 -0.10782,-0.174461 -0.12855,-0.384986 -0.0459,-0.467597 0.056,-0.056 0.11342,-0.07755 0.16592,-0.07249 z m -19.00309,-1.564141 c 0.071,-7.53e-4 0.15655,0.0015 0.25217,0.0015 0.95327,0 3.89886,2.42797 8.34173,6.875649 3.05568,3.058977 4.37175,4.171094 6.94557,5.868466 2.17691,1.435594 4.22115,2.762878 4.22115,3.081762 0,0.25585 -0.0427,0.465044 -0.0944,0.465044 -0.0518,0 -2.70178,-1.555405 -4.61165,-2.817841 -2.84343,-1.879509 -4.08486,-2.912165 -6.85167,-5.701028 -1.85838,-1.873226 -4.44891,-4.288923 -5.75668,-5.368205 -2.71299,-2.238972 -2.94339,-2.400112 -2.44619,-2.405378 z m -18.19197,0.0015 c 0.255138,0 1.214842,0.50395 2.132266,1.119481 2.175791,1.459787 6.512964,3.729126 11.293344,5.909313 5.29813,2.416329 7.87603,3.891724 11.24176,6.433054 2.51651,1.900095 5.45402,4.296993 12.15773,10.520468 0.90325,0.838525 1.30317,1.393808 1.25118,1.736647 -0.0645,0.425225 -0.4088,0.212306 -2.20373,-1.360933 -1.1701,-1.025603 -4.62099,-3.953157 -6.18001,-5.427929 -3.30596,-3.127335 -7.51912,-6.345759 -10.61695,-8.110491 -1.20361,-0.685638 -4.07993,-2.101417 -6.39171,-3.146084 -6.181845,-2.793535 -11.457431,-5.764565 -12.670604,-7.134988 -0.460085,-0.51974 -0.460866,-0.538557 -0.01324,-0.538557 z m 25.63526,0 c 0.6819,0 3.00097,1.998212 5.69032,4.902642 1.26346,1.364549 4.07752,4.612509 4.97563,5.300814 0.89811,0.688296 1.63714,1.448279 1.64221,1.689182 0.0118,0.563423 0.0541,0.574586 -1.38699,-0.365499 -1.75558,-1.14526 -11.5411,-11.527139 -10.92117,-11.527139 z m 6.39681,0 c 0.46751,0 0.91331,0.385941 1.80863,1.56462 0.65351,0.860377 3.18833,3.545912 3.71577,4.051161 0.67947,0.650857 0.93451,1.088182 0.87599,1.501325 -0.0762,0.538312 -0.18813,0.47756 -1.45896,-0.793283 -0.75712,-0.757108 -3.53361,-3.704933 -4.2533,-4.634133 -1.24951,-1.613261 -1.28062,-1.68969 -0.68813,-1.68969 z m -23.61375,0.0082 c 0.81219,-0.0099 8.85605,4.076118 11.46894,5.825588 3.57376,2.392819 7.39554,5.351995 10.10698,7.825648 4.18675,3.819592 8.60957,6.896057 8.81598,6.902695 0.25933,0.0089 0.23808,1.007179 -0.0214,1.007179 -0.11503,0 -3.36009,-1.935512 -4.65607,-3.023566 -1.29598,-1.088043 -3.48267,-3.019779 -4.85925,-4.292627 -4.84205,-4.477107 -9.91581,-8.002541 -16.14391,-11.218287 -2.40906,-1.243846 -4.60536,-2.432022 -4.88069,-2.640196 -0.48719,-0.368355 -0.48282,-0.37869 0.16948,-0.386434 z m -16.381288,0.0031 c 0.324692,-0.0069 1.42376,0.682906 2.628468,1.649356 1.138561,0.913404 2.48287,1.922895 2.987823,2.243053 1.689211,1.070984 8.79934,4.554474 12.973327,6.355973 7.93962,3.426789 13.01952,6.590437 17.63094,10.98092 1.78758,1.701935 5.24591,5.410218 6.40753,6.323809 3.27129,2.572863 3.35093,2.649413 3.25328,3.150683 -0.0755,0.38719 -0.53223,0.13388 -2.69788,-1.49773 -1.43365,-1.08013 -5.2639,-5.062444 -7.23399,-6.932835 -2.93218,-2.783776 -4.2257,-3.802592 -7.13141,-5.616804 -3.89455,-2.431631 -7.32186,-4.198981 -11.73031,-6.049181 -4.105608,-1.723075 -10.675784,-5.099345 -12.855388,-6.606104 -1.02337,-0.707469 -2.519638,-1.894711 -3.325269,-2.638158 -1.233147,-1.138011 -1.376828,-1.353489 -0.907121,-1.362982 z m -36.099047,5.09e-4 c 0.74233,-0.002 0.738013,0.0061 -0.39307,0.716714 -0.629233,0.395273 -1.795266,1.085821 -2.591177,1.535011 -0.824182,-0.647917 1.649131,-2.15497 2.984247,-2.251725 z m 8.360137,4.488643 c 1.661918,-0.05611 3.392442,0.984419 4.946023,3.078704 1.261815,1.700967 2.178824,3.568948 2.422227,4.935315 0.213255,1.197199 -0.418705,4.005562 -1.241484,5.51725 -0.885715,1.627343 -3.178278,4.147247 -4.585127,5.039452 -1.523452,0.966155 -3.015453,0.963626 -4.546324,-0.0069 -1.758835,-1.115416 -3.383294,-4.174601 -3.886291,-7.319253 -0.346602,-2.167098 1.651753,-7.402241 3.655038,-9.575562 0.994071,-1.078442 2.098809,-1.630396 3.235938,-1.668764 z m 0.634014,1.256292 c -2.469742,0 -3.797583,1.303659 -5.608141,5.506542 -1.148252,2.665442 -1.253397,4.40941 -0.425738,7.058395 0.719304,2.302056 1.516864,3.400413 3.042974,4.189497 1.212946,0.627188 1.480709,0.631495 2.757094,0.04386 1.180189,-0.543231 3.769252,-3.184057 4.690272,-4.784205 0.800464,-1.390668 1.44162,-3.529267 1.44162,-4.807183 0,-1.399291 -1.530328,-4.264938 -3.134872,-5.869493 -1.303323,-1.303323 -1.373578,-1.337452 -2.763209,-1.337452 z m -0.327221,2.002613 c 1.235834,0 2.085483,0.43539 3.256841,1.668754 1.476481,1.554599 1.836933,2.460338 1.82498,4.588189 -0.01304,2.326574 -0.539241,3.56468 -2.380876,5.60251 -1.220345,1.350344 -2.477931,2.171296 -3.288007,2.146561 -0.176497,-0.0059 -0.663915,-0.159161 -1.083746,-0.342019 -1.938987,-0.844581 -2.756284,-3.02061 -2.558005,-6.811327 0.103604,-1.980752 0.245833,-2.5958 0.916318,-3.957741 1.007505,-2.046582 1.978431,-2.894927 3.312495,-2.894927 z m 0.04801,0.750915 c -0.928577,0 -1.703417,0.852266 -2.628448,2.891864 -0.756515,1.668033 -0.816813,5.629873 -0.113324,7.4535 0.456657,1.183835 1.544019,2.165814 2.400771,2.168007 0.20057,5.14e-4 1.067022,-0.718444 1.925008,-1.597797 1.938779,-1.987045 2.408012,-3.008439 2.429883,-5.284486 0.01432,-1.484562 -0.09523,-1.956896 -0.71721,-3.094519 -0.843919,-1.543467 -2.134776,-2.536569 -3.29668,-2.536569 z m 0.551826,1.401257 c 1.64145,0 2.872483,1.731412 2.872483,4.039425 0,1.80313 -0.7651,3.450783 -1.976574,4.255871 -0.933131,0.620105 -1.364362,0.670237 -2.220095,0.257786 -1.626287,-0.783879 -2.096517,-3.427194 -1.088844,-6.121668 0.692464,-1.851603 1.268037,-2.431414 2.41303,-2.431414 z m 0.355295,0.708042 c -1.078629,0.02638 -2.247478,1.962468 -2.409967,4.230849 -0.182118,2.54214 0.969246,3.807412 2.532499,2.783133 0.735296,-0.481788 1.643722,-2.538071 1.643722,-3.720887 0,-1.179142 -0.68877,-2.848795 -1.312935,-3.182832 -0.147227,-0.07883 -0.299216,-0.114026 -0.453319,-0.110263 z m -0.08624,1.144489 c 1.104244,0 1.526347,3.146904 0.582982,4.346218 -0.646332,0.821683 -1.589134,0.862728 -2.094512,0.09137 -0.690449,-1.053756 0.4622,-4.437593 1.51153,-4.437593 z m 33.544618,21.334464 c 0.601139,0.009 1.203225,0.0997 1.731551,0.27975 1.602242,0.54594 2.721047,1.44625 3.545783,2.85357 0.614494,1.04855 0.687545,1.41668 0.683524,3.43349 -0.0059,3.04076 -0.677775,4.51907 -3.173655,6.98386 -2.864333,2.8287 -5.817839,3.78634 -8.073734,2.61825 -1.415946,-0.73316 -2.082065,-1.40301 -2.822429,-2.83826 -0.824577,-1.59843 -0.879027,-3.95846 -0.130187,-5.63824 0.609318,-1.36674 4.630034,-6.45542 5.58875,-7.0732 0.649493,-0.41854 1.648513,-0.63367 2.650397,-0.61922 z m 0.271566,0.88211 c -0.680284,-0.0146 -1.348338,0.13487 -1.957686,0.45688 -0.842062,0.44498 -3.397123,3.27543 -4.882722,5.40853 -1.448723,2.08011 -1.711755,4.29115 -0.75297,6.33249 0.667275,1.42061 1.176624,1.94346 2.418157,2.48195 1.192923,0.51742 1.493966,0.49371 3.431441,-0.27311 1.335892,-0.52873 2.053211,-1.03436 3.406429,-2.40129 2.325834,-2.34943 3.019157,-3.87677 2.990382,-6.58927 -0.02292,-2.15492 -0.337426,-3.07964 -1.36451,-4.0139 -0.986731,-0.89752 -2.154701,-1.37788 -3.288521,-1.40228 z m -0.276159,2.06949 c 1.361447,0.003 2.577949,0.65909 3.286456,1.8949 1.483455,2.58757 -0.108544,6.54983 -3.253789,8.09823 -2.098344,1.03301 -3.789532,1.21296 -4.891395,0.52019 -1.769711,-1.11263 -1.983924,-3.66186 -0.550828,-6.55099 0.976556,-1.96874 1.307057,-2.34116 2.881156,-3.24613 0.842615,-0.48445 1.711527,-0.71801 2.5284,-0.7162 z m 0.0812,0.92856 c -1.029781,0.0184 -2.046147,0.5922 -3.253789,1.79893 -2.283919,2.2823 -2.959936,5.3374 -1.502856,6.79447 0.872992,0.87301 1.085327,0.88775 2.916373,0.20267 0.777616,-0.29095 1.767063,-0.85157 2.199153,-1.24609 l 0.785607,-0.71722 -1.278232,0.52987 c -2.115305,0.87704 -4.35335,0.0572 -4.35335,-1.59473 0,-1.67025 2.089642,-4.46346 3.627962,-4.84955 1.557997,-0.39104 2.859908,1.04042 2.900024,3.18845 l 0.02045,1.08834 0.344054,-0.7504 c 0.781221,-1.70611 0.112702,-3.80359 -1.364006,-4.28088 -0.353843,-0.11436 -0.698115,-0.17001 -1.041388,-0.16386 z"
       clip-path="none"
       style="fill:#ffffff;fill-opacity:1;stroke:none;stroke-width:2.89966655;stroke-miterlimit:4;stroke-dasharray:none;stroke-opacity:1" />
    <g
       style="fill:#ffffff"
       transform="translate(0.01438187,38.300983)"
       id="g976">
      <g
         aria-label="ÖKO"
         transform="matrix(0.9762761,0,0,0.9762761,-89.540521,-549.07552)"
         style="font-style:normal;font-weight:normal;font-size:40px;line-height:1.25;font-family:sans-serif;letter-spacing:0px;word-spacing:0px;fill:#ffffff;fill-opacity:1;stroke:none"
         id="flowRoot843">
        <path
           d="m 169.43945,668.5681 c 0,1.32813 -0.17578,2.61068 -0.52734,3.84766 -0.33854,1.22396 -0.82031,2.3763 -1.44531,3.45703 -0.625,1.06771 -1.38021,2.04427 -2.26563,2.92969 -0.88541,0.88541 -1.86198,1.64713 -2.92969,2.28516 -1.06771,0.625 -2.22005,1.10677 -3.45703,1.44531 -1.23698,0.35156 -2.51953,0.52734 -3.84765,0.52734 -1.32813,0 -2.61068,-0.17578 -3.84766,-0.52734 -1.22396,-0.33854 -2.3763,-0.82031 -3.45703,-1.44531 -1.06771,-0.63803 -2.04427,-1.39975 -2.92969,-2.28516 -0.88541,-0.88542 -1.64713,-1.86198 -2.28515,-2.92969 -0.625,-1.08073 -1.11328,-2.23307 -1.46485,-3.45703 -0.33854,-1.23698 -0.50781,-2.51953 -0.50781,-3.84766 0,-1.32812 0.16927,-2.61067 0.50781,-3.84765 0.35157,-1.23698 0.83985,-2.38932 1.46485,-3.45703 0.63802,-1.06771 1.39974,-2.04428 2.28515,-2.92969 0.88542,-0.88542 1.86198,-1.64063 2.92969,-2.26563 1.08073,-0.625 2.23307,-1.10677 3.45703,-1.44531 1.23698,-0.35156 2.51953,-0.52734 3.84766,-0.52734 1.32812,0 2.61067,0.17578 3.84765,0.52734 1.23698,0.33854 2.38932,0.82031 3.45703,1.44531 1.06771,0.625 2.04428,1.38021 2.92969,2.26563 0.88542,0.88541 1.64063,1.86198 2.26563,2.92969 0.625,1.06771 1.10677,2.22005 1.44531,3.45703 0.35156,1.23698 0.52734,2.51953 0.52734,3.84765 z m -5.5664,0 c 0,-1.22395 -0.23438,-2.3763 -0.70313,-3.45703 -0.46875,-1.09375 -1.10677,-2.03776 -1.91406,-2.83203 -0.79427,-0.80729 -1.73828,-1.44531 -2.83203,-1.91406 -1.08073,-0.46875 -2.23308,-0.70313 -3.45703,-0.70313 -1.23698,0 -2.39584,0.23438 -3.47657,0.70313 -1.08073,0.46875 -2.02474,1.10677 -2.83203,1.91406 -0.80729,0.79427 -1.44531,1.73828 -1.91406,2.83203 -0.46875,1.08073 -0.70312,2.23308 -0.70312,3.45703 0,1.22396 0.23437,2.37631 0.70312,3.45704 0.46875,1.06771 1.10677,2.00521 1.91406,2.8125 0.80729,0.80729 1.7513,1.44531 2.83203,1.91406 1.08073,0.46875 2.23959,0.70312 3.47657,0.70312 1.22395,0 2.3763,-0.23437 3.45703,-0.70312 1.09375,-0.46875 2.03776,-1.10677 2.83203,-1.91406 0.80729,-0.80729 1.44531,-1.74479 1.91406,-2.8125 0.46875,-1.08073 0.70313,-2.23308 0.70313,-3.45704 z"
           style="font-style:normal;font-variant:normal;font-weight:bold;font-stretch:normal;font-family:Righteous;-inkscape-font-specification:'Righteous Bold';fill:#ffffff;fill-opacity:1"
           id="path851" />
        <path
           d="m 178.69727,682.45482 h -5.60547 v -28.00781 h 5.60547 v 14.00391 l 10.42968,-14.00391 h 6.36719 l -8.84766,11.81641 8.84766,16.1914 h -6.36719 l -6.15234,-11.32812 -4.27734,5.72265 z"
           style="font-style:normal;font-variant:normal;font-weight:bold;font-stretch:normal;font-family:Righteous;-inkscape-font-specification:'Righteous Bold';fill:#ffffff;fill-opacity:1"
           id="path853" />
        <path
           d="m 224.5957,668.5681 q 0,1.99219 -0.52734,3.84766 -0.50781,1.83594 -1.44531,3.45703 -0.9375,1.60156 -2.26563,2.92969 -1.32812,1.32812 -2.92969,2.28516 -1.60156,0.9375 -3.45703,1.44531 -1.85547,0.52734 -3.84765,0.52734 -1.99219,0 -3.84766,-0.52734 -1.83594,-0.50781 -3.45703,-1.44531 -1.60156,-0.95704 -2.92969,-2.28516 -1.32812,-1.32813 -2.28515,-2.92969 -0.9375,-1.62109 -1.46485,-3.45703 -0.50781,-1.85547 -0.50781,-3.84766 0,-1.99218 0.50781,-3.84765 0.52735,-1.85547 1.46485,-3.45703 0.95703,-1.60157 2.28515,-2.92969 1.32813,-1.32813 2.92969,-2.26563 1.62109,-0.9375 3.45703,-1.44531 1.85547,-0.52734 3.84766,-0.52734 1.99218,0 3.84765,0.52734 1.85547,0.50781 3.45703,1.44531 1.60157,0.9375 2.92969,2.26563 1.32813,1.32812 2.26563,2.92969 0.9375,1.60156 1.44531,3.45703 0.52734,1.85547 0.52734,3.84765 z m -5.5664,0 q 0,-1.83593 -0.70313,-3.45703 -0.70312,-1.64062 -1.91406,-2.83203 -1.19141,-1.21094 -2.83203,-1.91406 -1.6211,-0.70313 -3.45703,-0.70313 -1.85547,0 -3.47657,0.70313 -1.62109,0.70312 -2.83203,1.91406 -1.21093,1.19141 -1.91406,2.83203 -0.70312,1.6211 -0.70312,3.45703 0,1.83594 0.70312,3.45704 0.70313,1.60156 1.91406,2.8125 1.21094,1.21093 2.83203,1.91406 1.6211,0.70312 3.47657,0.70312 1.83593,0 3.45703,-0.70312 1.64062,-0.70313 2.83203,-1.91406 1.21094,-1.21094 1.91406,-2.8125 0.70313,-1.6211 0.70313,-3.45704 z"
           style="font-style:normal;font-variant:normal;font-weight:bold;font-stretch:normal;font-family:Righteous;-inkscape-font-specification:'Righteous Bold';fill:#ffffff;fill-opacity:1"
           id="path855" />
      </g>
      <circle
         style="fill:#ffffff;fill-opacity:1;stroke:none;stroke-width:1.51234019;stroke-miterlimit:4;stroke-dasharray:none;stroke-opacity:1"
         id="path925"
         cx="58.06786"
         cy="103.64108"
         r="2.9304676" />
      <circle
         r="2.9304676"
         cy="103.64108"
         cx="65.444633"
         id="circle927"
         style="fill:#ffffff;fill-opacity:1;stroke:none;stroke-width:1.51234019;stroke-miterlimit:4;stroke-dasharray:none;stroke-opacity:1" />
    </g>
  </g>
</svg>
