<?xml version="1.0" encoding="UTF-8" standalone="no"?>
<!-- Created with Inkscape (http://www.inkscape.org/) -->

<svg
   xmlns:dc="http://purl.org/dc/elements/1.1/"
   xmlns:cc="http://creativecommons.org/ns#"
   xmlns:rdf="http://www.w3.org/1999/02/22-rdf-syntax-ns#"
   xmlns:svg="http://www.w3.org/2000/svg"
   xmlns="http://www.w3.org/2000/svg"
   xmlns:sodipodi="http://sodipodi.sourceforge.net/DTD/sodipodi-0.dtd"
   xmlns:inkscape="http://www.inkscape.org/namespaces/inkscape"
   version="1.1"
   id="svg815"
   width="516"
   height="510"
   viewBox="0 0 516 510"
   sodipodi:docname="vst-logo.svg"
   inkscape:version="0.92.3 (2405546, 2018-03-11)">
  <metadata
     id="metadata821">
    <rdf:RDF>
      <cc:Work
         rdf:about="">
        <dc:format>image/svg+xml</dc:format>
        <dc:type
           rdf:resource="http://purl.org/dc/dcmitype/StillImage" />
        <dc:title></dc:title>
      </cc:Work>
    </rdf:RDF>
  </metadata>
  <defs
     id="defs819" />
  <sodipodi:namedview
     pagecolor="#ffffff"
     bordercolor="#666666"
     borderopacity="1"
     objecttolerance="10"
     gridtolerance="10"
     guidetolerance="10"
     inkscape:pageopacity="0"
     inkscape:pageshadow="2"
     inkscape:window-width="1920"
     inkscape:window-height="1017"
     id="namedview817"
     showgrid="false"
     inkscape:zoom="0.41568628"
     inkscape:cx="-216.41697"
     inkscape:cy="415.60267"
     inkscape:window-x="1912"
     inkscape:window-y="-8"
     inkscape:window-maximized="1"
     inkscape:current-layer="svg815" />
  <path
     style="fill:#f1c40f;stroke-width:1.19741213;fill-opacity:1"
     d="m 348.2195,395.49276 c -0.2791,-0.41645 1.191,-2.69795 3.2669,-5.06999 4.529,-5.17488 11.2828,-16.23501 10.5665,-17.30367 -0.2812,-0.4195 -1.8463,-0.54318 -3.4781,-0.27484 -1.6318,0.26836 -7.4182,0.10369 -12.8588,-0.36603 -8.2479,-0.71202 -10.3037,-0.4407 -12.3697,1.6325 -1.3627,1.36756 -7.1214,5.59916 -12.797,9.40358 l -10.3193,6.91715 2.8661,4.20537 c 1.5762,2.31302 5.2485,6.00774 8.1604,8.21056 2.9119,2.20283 5.2277,4.34315 5.1462,4.75628 -0.2294,1.16212 -11.7391,3.41315 -18.4482,3.60805 -3.312,0.0962 -10.8267,-0.68075 -16.6994,-1.72654 -8.6828,-1.54621 -11.7379,-1.48348 -16.3526,0.33574 -15.458,6.09386 -35.1859,9.60541 -43.5895,7.75888 l -4.4708,-0.98237 7.2591,-4.77667 c 7.5179,-4.94708 17.2513,-14.60123 16.2407,-16.10878 -0.3173,-0.47333 -4.3824,-2.99653 -9.0336,-5.6071 -4.6512,-2.61059 -12.168,-7.25657 -16.7039,-10.32441 l -8.2472,-5.57793 -16.393,0.11112 c -9.01614,0.0611 -16.55071,0.2168 -16.74351,0.34604 -0.66727,0.44727 2.35571,16.46564 4.04506,21.43428 0.93304,2.74417 1.34783,5.22305 0.92177,5.50864 -0.84534,0.56664 -8.60671,-5.41865 -15.18986,-11.71387 -2.28568,-2.18572 -6.69809,-7.64951 -9.80536,-12.14177 -5.06809,-7.32708 -6.24457,-8.40377 -11.43035,-10.46082 -3.17942,-1.26119 -7.44391,-3.39343 -9.47663,-4.73831 -3.58887,-2.37443 -3.65843,-2.57501 -2.40272,-6.92922 0.71121,-2.4662 2.48006,-6.10071 3.93079,-8.07666 1.45071,-1.97597 2.38824,-3.96479 2.08338,-4.41959 -1.44645,-2.15788 -4.99677,-21.19244 -5.33456,-28.60055 -0.37755,-8.28054 -0.39573,-8.32506 -4.13264,-10.12575 -2.06439,-0.99477 -6.37074,-3.13728 -9.56969,-4.76116 l -5.81628,-2.9525 -0.51404,3.59195 c -0.72447,5.0623 -0.63282,15.5301 0.19574,22.35621 0.38686,3.1871 0.31641,5.71835 -0.15653,5.625 -1.27698,-0.25205 -5.87794,-12.11091 -8.73332,-22.50991 -5.23696,-19.07239 -6.45973,-44.31215 -3.12102,-64.42233 2.15991,-13.00995 5.33432,-25.3984 6.45156,-25.17788 0.54378,0.10729 0.83592,1.43675 0.64926,2.95422 -0.44424,3.61075 0.6044,19.16028 1.64945,24.45857 l 0.81973,4.15594 3.06069,-3.27284 c 1.68339,-1.80007 5.15728,-4.6937 7.71978,-6.43028 4.31757,-2.92598 4.71154,-3.67818 5.37469,-10.26145 0.39358,-3.9072 2.47584,-13.18772 4.62726,-20.62336 2.1514,-7.43564 3.83099,-13.91156 3.73241,-14.3909 -0.0985,-0.47938 -3.36838,-2.13698 -7.26619,-3.68356 -3.89783,-1.54659 -7.02966,-3.1023 -6.95963,-3.45712 0.31939,-1.61811 13.5273,-12.52159 22.42019,-18.50842 6.82803,-4.59679 11.43144,-8.55516 15.08846,-12.97437 2.89444,-3.49768 8.04076,-9.20516 11.43626,-12.6833 7.59491,-7.77973 26.97513,-22.71825 27.82612,-21.44871 0.33575,0.50088 -1.02547,3.11251 -3.02495,5.80361 -1.99946,2.69109 -5.25964,8.6662 -7.24481,13.27801 l -3.60943,8.38512 11.57427,-3.0557 c 6.36585,-1.68064 14.82215,-3.53293 18.79185,-4.11619 3.9697,-0.58329 8.1974,-1.71089 9.3948,-2.50583 3.7736,-2.5051 28.2178,-10.62065 37.6879,-12.51253 l 9.0834,-1.81464 -1.415,-3.41211 c -0.7783,-1.87669 -2.6338,-5.23022 -4.1233,-7.45238 l -2.7083,-4.04028 4.9216,0.8624 c 5.749,1.00733 21.8759,7.23155 28.7763,11.10634 2.6377,1.48105 7.2763,2.91261 10.3081,3.18116 7.8403,0.69438 25.5354,6.31448 34.9452,11.09868 4.4102,2.24224 7.9592,4.37679 7.8869,4.74333 -0.072,0.36663 -3.0856,1.06324 -6.6962,1.54814 -3.6105,0.48489 -8.1244,1.53598 -10.0309,2.33573 l -3.4663,1.45411 6.127,6.47556 c 3.3698,3.56161 11.595,13.51367 18.2782,22.11579 6.6832,8.60211 14.6469,18.50821 17.6971,22.01352 3.0501,3.50537 7.163,8.73642 9.1397,11.62456 l 3.5937,5.25144 2.5341,-5.01065 c 1.3939,-2.7559 3.0229,-8.15516 3.6202,-11.99844 0.5974,-3.84329 1.506,-6.90494 2.0192,-6.80364 3.1677,0.62526 9.8871,30.77174 9.731,43.6578 -0.046,3.77737 0.9739,8.54868 2.5132,11.76012 3.2518,6.78392 7.9844,22.60359 7.8374,26.19832 -0.1037,2.53764 -0.4391,2.5983 -5.2668,0.95177 -2.836,-0.96711 -6.6237,-1.74303 -8.4173,-1.72429 -3.0424,0.032 -3.5533,0.63069 -7.6171,8.92734 -2.3958,4.89121 -7.7151,13.31573 -11.8206,18.72111 l -7.4645,9.8279 6.5893,11.11263 c 3.6241,6.11198 6.8366,11.18881 7.1389,11.28186 1.3739,0.42303 11.8968,-13.18646 16.975,-21.95397 3.0892,-5.33374 5.8281,-9.38243 6.0865,-8.99707 0.8565,1.27788 -3.3342,15.20211 -7.8665,26.1378 -8.16,19.68829 -21.4547,39.20872 -35.8813,52.68388 -9.4946,8.86839 -23.0544,19.37014 -23.7229,18.37282 z m 25.0695,-57.88283 c 1.9247,-11.65126 3.2564,-31.85251 3.2491,-49.28698 -0.01,-20.3445 0.897,-18.71004 -11.315,-20.42409 -5.7993,-0.81401 -15.4944,-2.73085 -21.5447,-4.25962 l -11.0002,-2.77968 -16.6967,6.62154 c -9.1831,3.64184 -21.8087,8.4272 -28.0568,10.63415 l -11.3602,4.0126 0.4299,16.65197 c 0.7545,29.22443 1.478,33.85338 7.329,46.89442 2.8974,6.45791 7.5312,15.73845 10.2973,20.62344 l 5.0294,8.88182 18.6383,-2.54492 18.6383,-2.5449 11.6701,-6.80677 c 6.4186,-3.74372 14.2277,-8.79769 17.3537,-11.23105 5.562,-4.32964 5.719,-4.6386 7.3385,-14.44193 z M 270.74,355.77207 c 2.6414,-7.62462 5.0967,-15.69955 5.4562,-17.94427 l 0.6536,-4.08132 -11.4298,-11.55102 c -6.2863,-6.35305 -14.7567,-15.45952 -18.8229,-20.23658 -4.0662,-4.77707 -7.5299,-8.69258 -7.6971,-8.70115 -0.1672,-0.008 -3.297,0.84191 -6.9552,1.88993 -6.1918,1.7739 -24.25098,5.83639 -35.44326,7.97309 l -4.84949,0.92583 -3.9731,18.9267 c -2.18518,10.40968 -4.02775,20.73311 -4.09459,22.94096 l -0.12151,4.01424 9.33978,7.10507 c 20.15247,15.33066 23.83977,16.55927 55.25587,18.41147 16.7056,0.98491 15.0177,2.44888 22.6815,-19.67295 z m 95.9636,-118.00482 6.2091,-5.06948 -2.4257,-14.39432 c -1.3341,-7.91693 -3.5785,-19.75358 -4.9873,-26.30377 l -2.5616,-11.90944 -10.7887,-5.81012 c -5.9339,-3.19555 -16.767,-8.28974 -24.0738,-11.32038 l -13.2849,-5.51031 -7.7743,5.6063 c -9.6212,6.93815 -26.823,23.44001 -27.3138,26.20242 -0.8495,4.78122 -2.9751,54.37903 -2.3701,55.30038 0.7976,1.21459 24.3033,7.88325 41.9684,11.90661 l 12.7216,2.89751 7.6852,-4.05732 c 10.3008,-5.43823 19.4797,-11.40135 26.9959,-17.53808 z m -189.88326,76.21898 c 8.58563,-6.8164 13.87484,-11.81755 16.32288,-15.43393 1.99185,-2.94247 8.31606,-12.48314 14.05381,-21.20149 l 10.43227,-15.85151 -5.66352,-9.89826 c -3.11494,-5.44405 -8.23537,-16.133 -11.37872,-23.75322 l -5.71519,-13.85497 -9.41234,-2.67351 c -5.17679,-1.47043 -13.05963,-4.26945 -17.51741,-6.22005 -4.45777,-1.9506 -8.62744,-3.20985 -9.26592,-2.79832 -2.06221,1.32912 -16.82883,21.50249 -20.74496,28.34058 -3.94476,6.88807 -9.37793,22.60975 -11.9212,34.49568 -1.2696,5.93352 -1.03669,7.84631 1.71683,14.09939 5.59039,12.69548 14.33696,26.62303 23.82439,37.93676 8.6978,10.37207 9.18704,10.77289 10.83837,8.8796 0.95115,-1.09053 7.44497,-6.52057 14.43071,-12.06675 z m 73.53626,-95.28021 c 5.7564,-7.00446 14.4176,-17.00199 19.247,-22.21672 8.5366,-9.21784 8.8142,-9.70786 9.9891,-17.63459 0.6648,-4.48429 1.3888,-13.53078 1.6091,-20.10327 l 0.4005,-11.95001 -16.2355,-2.79569 c -8.9295,-1.53769 -20.7832,-2.89456 -26.3414,-3.01537 -10.0878,-0.21922 -10.1202,-0.2099 -18.1384,5.20187 -7.9097,5.33862 -23.49102,17.68381 -29.9679,23.74384 -3.12625,2.92504 -3.22891,3.73707 -1.84633,14.60591 0.8052,6.32978 2.70284,15.16921 4.21698,19.64316 l 2.75301,8.13448 6.18252,3.17436 c 6.77632,3.47923 36.82592,16.47492 37.34292,16.14989 0.1771,-0.11148 5.0319,-5.9334 10.7884,-12.93786 z"
     id="path846"
     inkscape:connector-curvature="0" />
  <path
     style="color:#000000;font-style:normal;font-variant:normal;font-weight:normal;font-stretch:normal;font-size:medium;line-height:1.25;font-family:Affluent;-inkscape-font-specification:Affluent;font-variant-ligatures:normal;font-variant-position:normal;font-variant-caps:normal;font-variant-numeric:normal;font-variant-alternates:normal;font-feature-settings:normal;text-indent:0;text-align:start;text-decoration:none;text-decoration-line:none;text-decoration-style:solid;text-decoration-color:#000000;letter-spacing:0px;word-spacing:0px;text-transform:none;writing-mode:lr-tb;direction:ltr;text-orientation:mixed;dominant-baseline:auto;baseline-shift:baseline;text-anchor:start;white-space:normal;shape-padding:0;clip-rule:nonzero;display:inline;overflow:visible;visibility:visible;opacity:1;isolation:auto;mix-blend-mode:normal;color-interpolation:sRGB;color-interpolation-filters:linearRGB;solid-color:#000000;solid-opacity:1;vector-effect:none;fill:#f1c40f;fill-opacity:1;fill-rule:nonzero;stroke:none;stroke-width:6.60661411;stroke-linecap:butt;stroke-linejoin:miter;stroke-miterlimit:4;stroke-dasharray:none;stroke-dashoffset:0;stroke-opacity:1;color-rendering:auto;image-rendering:auto;shape-rendering:auto;text-rendering:auto;enable-background:accumulate"
     d="m 260.05524,21.446752 -0.89649,0.59765 c -6.39368,4.26041 -10.17425,10.34754 -10.47461,17.39063 -0.10924,2.56312 0.23596,5.01183 1.09766,7.249998 l 0.01,0.02539 0.01,0.02539 c 0.80547,1.993412 1.92982,3.859512 3.33008,5.574219 1.37771,1.764662 2.97029,3.366065 4.76367,4.791016 1.62428,1.290594 3.28553,2.582396 4.98438,3.875 l 0.0391,0.0293 0.041,0.0293 c 1.63838,1.170934 3.23881,2.37806 4.80079,3.61914 1.43593,1.14094 2.67576,2.35588 3.73828,3.650391 l 0.0566,0.07031 0.0625,0.06836 c 0.33703,0.367048 0.47777,0.630998 0.43945,1.529297 -0.0103,0.242399 -0.12377,0.257514 -0.15625,0.421874 l -23.36328,-0.996093 -0.72852,17.109375 31.29492,1.333984 0.91016,-0.626953 c 5.49063,-3.784613 8.62995,-9.608414 8.91992,-16.408203 0.097,-2.274582 -0.16646,-4.449872 -0.83008,-6.470703 -0.56358,-1.935157 -1.44921,-3.765233 -2.63476,-5.433594 -0.6889,-0.974678 -1.44175,-1.904564 -2.25391,-2.789063 -0.40521,-0.441328 -0.82776,-0.873482 -1.26757,-1.296874 -0.40935,-0.394047 -0.83497,-0.776819 -1.27149,-1.152344 -1.68581,-1.5838 -3.45711,-3.055591 -5.3125,-4.410156 -1.72546,-1.259702 -3.41472,-2.478833 -5.07227,-3.664063 -1.45792,-1.160398 -2.68034,-2.323238 -3.66992,-3.468758 l -0.0332,-0.0371 -0.0332,-0.0371 c -0.36461,-0.3971 -0.61621,-0.77819 -0.8125,-1.15235 -0.0893,-0.21255 -0.18326,-0.55762 -0.15625,-1.1914 0.007,-0.17546 0.0293,-0.32786 0.0644,-0.47461 0.0157,-0.0658 0.0378,-0.14183 0.0664,-0.22461 0.0174,-0.0505 0.0898,-0.11822 0.11132,-0.16992 l 19.45313,0.82812 0.73047,-17.10937 z m -63.98242,8.29882 -3.1211,1.08204 -21.42383,7.43164 -0.61523,0.88476 c -4.37959,6.31234 -5.65766,13.362865 -3.34766,20.02344 0.84041,2.423219 2.06048,4.574214 3.68555,6.339844 l 0.0176,0.02148 0.0195,0.01953 c 1.48517,1.561163 3.21937,2.88295 5.1543,3.962891 1.92651,1.131592 3.99388,2.035884 6.18359,2.701172 1.98604,0.603404 4.00457,1.192282 6.05859,1.769531 l 0.0488,0.01367 0.0469,0.01172 c 1.95514,0.486901 3.88705,1.019956 5.79492,1.599609 1.75356,0.53278 3.35545,1.207731 4.82031,2.021485 l 0.0801,0.04492 0.082,0.04102 c 0.44849,0.217507 0.67608,0.410244 0.9707,1.259766 0.0798,0.230054 -0.0204,0.286243 0.01,0.451171 l -22.0918,7.66211 4.76758,13.748049 -49.00977,-43.953127 -2.13867,1.453125 -16.15234,10.980469 22.19531,61.021483 -29.26953,-24.31836 -18.367185,22.10742 1.703126,2.10547 c 1.133658,1.40154 2.497106,2.74566 4.082031,4.0625 0.660972,0.54918 1.352094,1.06935 2.074219,1.55664 0.728702,0.49172 1.463765,0.92867 2.207029,1.31055 l 2.35742,1.21094 7.38868,-8.88867 6.05078,5.02734 -3.39258,4.08398 c -1.07803,0.42507 -2.19675,0.84973 -3.47656,1.26563 -1.25972,0.40936 -2.65217,0.63021 -4.22461,0.64062 -1.41253,0.009 -3.0092,-0.27678 -4.8125,-0.93554 -1.62535,-0.59377 -3.575149,-1.75095 -5.746097,-3.55469 -1.786277,-1.48414 -3.13726,-2.92458 -4.097656,-4.2793 -1.016588,-1.52753 -1.722574,-2.97584 -2.142578,-4.32812 -0.462,-1.48746 -0.724884,-2.90378 -0.806641,-4.26758 -0.06941,-1.15838 0.0236,-2.18624 0.140625,-3.19336 l 14.361327,-17.28516 -13.169921,-10.943356 -2.111328,2.541016 -14.185547,17.07422 -0.197265,0.56641 c -1.384962,3.98474 -2.029958,7.91672 -1.859375,11.74414 l 0.002,0.0254 0.002,0.0254 c 0.215744,3.59891 0.914441,7.04943 2.103515,10.3125 l 0.0059,0.0137 0.0039,0.0137 c 1.17434,3.13536 2.779184,6.04846 4.794922,8.69921 0.0023,0.003 0.0056,0.005 0.0078,0.008 0.0018,0.002 0.0021,0.005 0.0039,0.008 1.903273,2.52768 3.974158,4.73434 6.216797,6.59766 2.500392,2.07746 5.316709,3.81834 8.416015,5.2207 l 0.03516,0.0156 0.03516,0.0156 c 3.181319,1.35186 6.532238,2.24628 10.019527,2.6836 l 0.0195,0.004 0.0215,0.002 c 3.47782,0.39079 7.02132,0.23736 10.58789,-0.44336 l 0.0527,-0.01 0.0508,-0.0117 c 3.64604,-0.81704 7.17373,-2.31308 10.54492,-4.4375 l 0.44336,-0.2793 16.4668,-19.82031 -0.27735,-0.23047 14.26172,-9.69336 -6.29297,-16.09375 8.25586,-5.61133 12.55859,11.83594 14.8086,-10.06836 0.29297,0.84375 29.59375,-10.263673 0.61718,-0.917968 c 3.71504,-5.538424 4.49173,-12.107173 2.26172,-18.53711 -0.74556,-2.149772 -1.78909,-4.078053 -3.15039,-5.714844 -1.23866,-1.59603 -2.73788,-2.970872 -4.45508,-4.085937 -1.97846,-1.292539 -4.13854,-2.335524 -6.44921,-3.130859 -2.12623,-0.840311 -4.28949,-1.553783 -6.48829,-2.125 -2.0684,-0.537347 -4.08702,-1.050045 -6.06445,-1.542969 -1.78284,-0.543337 -3.34714,-1.174031 -4.6875,-1.875 l -0.0449,-0.02344 -0.0449,-0.02148 c -0.4875,-0.236431 -0.85807,-0.495819 -1.17774,-0.771484 -0.16086,-0.164608 -0.37642,-0.452286 -0.58398,-1.050782 -0.0984,-0.283604 0.0732,-0.667323 0.0742,-0.958984 l 18.22656,-6.320313 z m 131.85351,1.99219 c -1.00785,0.0154 -2.01232,0.0927 -3.01172,0.23047 -3.95664,0.47827 -7.70794,1.82852 -11.12695,3.99414 l -0.004,0.004 -0.006,0.002 c -3.31453,2.11422 -6.25066,4.94546 -8.80273,8.41016 -2.5458,3.417393 -4.55025,7.333003 -6.01953,11.69531 -1.4703,4.365357 -2.2437,8.697228 -2.28321,12.960938 -0.0392,4.235691 0.6008,8.227826 1.95704,11.90625 l 0.01,0.02539 0.01,0.02539 c 1.43712,3.70677 3.59065,7.02031 6.39648,9.84375 2.87962,2.897689 6.46718,5.052153 10.60352,6.445312 3.81867,1.286178 7.77952,1.648288 11.71484,1.0625 3.92679,-0.550401 7.63066,-1.879287 11.00586,-3.949219 3.44453,-2.045147 6.48809,-4.793088 9.09961,-8.160156 2.71642,-3.386002 4.81562,-7.307156 6.29492,-11.699218 1.47711,-4.385564 2.17829,-8.773449 2.06641,-13.107422 -0.0162,-4.319872 -0.76084,-8.379882 -2.26367,-12.097657 -1.40786,-3.763319 -3.56159,-7.084678 -6.39844,-9.843748 -2.7758,-2.83944 -6.14047,-4.94633 -9.95313,-6.23047 -3.10317,-1.04518 -6.21632,-1.56458 -9.28906,-1.51758 z m 1.12109,16.712893 c 1.14074,-0.03101 2.09442,0.113237 2.91797,0.390625 1.09881,0.370086 2.18598,1.044127 3.31446,2.179688 1.07616,1.082923 1.94053,2.429298 2.60156,4.15625 l 0.0156,0.03906 0.0156,0.03711 c 0.69336,1.6827 1.09075,3.677879 1.125,6.052734 v 0.04297 l 0.002,0.04297 c 0.091,2.255733 -0.30761,4.834131 -1.28906,7.748047 -0.9734,2.890036 -2.2473,5.188251 -3.77344,6.980469 l -0.0156,0.01953 -0.0156,0.01953 c -1.52725,1.850155 -3.11377,3.185927 -4.75586,4.095703 l -0.0351,0.01953 -0.0332,0.01953 c -1.64976,0.96701 -3.20864,1.512928 -4.72851,1.730469 -1.52573,0.182972 -2.67873,0.06383 -3.5293,-0.222656 -1.13321,-0.381683 -2.25067,-1.05925 -3.39648,-2.128907 -1.05855,-1.078912 -1.9536,-2.434621 -2.67383,-4.167968 -0.64306,-1.691697 -1.04722,-3.737087 -1.14649,-6.169922 -0.0696,-2.346965 0.34359,-4.96147 1.32227,-7.867188 0.98476,-2.923756 2.20511,-5.24751 3.5918,-7.02539 1.54047,-1.858077 3.08955,-3.234299 4.61328,-4.185547 1.64114,-0.955834 3.19335,-1.502883 4.70312,-1.716797 0.40626,-0.04906 0.79661,-0.0797 1.16992,-0.08984 z m 60.20313,15.007813 c -1.46073,-0.03069 -2.90216,0.04708 -4.31836,0.230468 -3.64105,0.471616 -7.0706,1.437395 -10.24219,2.90625 l -0.0137,0.0059 -0.0117,0.0078 c -3.01835,1.430752 -5.76414,3.240198 -8.19922,5.416016 -2.36918,2.116965 -4.42029,4.400887 -6.13086,6.853516 -1.89821,2.721716 -3.41973,5.704962 -4.55859,8.917968 l -0.0176,0.04687 -0.0137,0.04687 c -1.0362,3.229416 -1.60367,6.591227 -1.69922,10.046875 v 0.0332 0.0332 c -0.0279,3.516299 0.45176,7.031159 1.42578,10.511719 l 0.008,0.0215 0.006,0.0234 c 1.07493,3.64129 2.84764,7.085 5.26172,10.2832 l 0.31641,0.41797 15.66211,10.92383 9.73242,-13.95313 -12.94531,-9.02734 c -0.53552,-1.02602 -1.06479,-2.09452 -1.56836,-3.28125 -0.4429,-1.28337 -0.75435,-2.71214 -0.90039,-4.314453 -0.12818,-1.406316 0.0226,-3.01842 0.52734,-4.871094 0.45468,-1.668938 1.4437,-3.709907 3.0586,-6.02539 1.32855,-1.904906 2.65374,-3.375721 3.92382,-4.447266 1.45727,-1.158553 2.83906,-2.015828 4.12305,-2.59375 1.44625,-0.621962 2.77178,-0.981524 3.98438,-1.115234 h 0.008 l 0.006,-0.002 c 1.23488,-0.141363 2.31744,-0.127511 3.37109,-0.08789 l 14.73828,10.279297 9.79492,-14.046875 -17.30859,-12.070312 -0.59375,-0.146485 c -2.51617,-0.624446 -4.99375,-0.972362 -7.42578,-1.023437 z m -250.17773,20.572265 5.83007,5.640625 -2.79101,1.898438 z m 285.05664,15.867188 c -1.77369,0.05434 -3.52356,0.242859 -5.24219,0.570309 l -0.0137,0.002 -0.0137,0.002 c -3.27583,0.65455 -6.37908,1.74487 -9.26953,3.26367 -2.81368,1.47845 -5.35897,3.19745 -7.61328,5.16016 -2.50298,2.17921 -4.70257,4.7051 -6.58789,7.54492 l -0.0273,0.041 -0.0274,0.041 c -1.78944,2.88014 -3.1555,6.00269 -4.08789,9.33203 l -0.008,0.0312 -0.008,0.0312 c -0.88167,3.40505 -1.26905,6.93101 -1.16992,10.54297 l 0.002,0.0234 v 0.0234 c 0.15793,3.79292 1.04068,7.56459 2.60547,11.2539 l 0.20508,0.48438 12.53906,14.40039 12.82812,-11.16992 -10.36328,-11.9043 c -0.27045,-1.12679 -0.52244,-2.29313 -0.72265,-3.56836 -0.11679,-1.3493 -0.0716,-2.80898 0.17578,-4.39648 0.21733,-1.39501 0.75538,-2.92283 1.69531,-4.59766 0.84696,-1.50914 2.30293,-3.2482 4.43164,-5.10156 1.74993,-1.52356 3.38852,-2.62615 4.88086,-3.35742 1.69818,-0.77145 3.25104,-1.26921 4.63672,-1.51758 1.55168,-0.2514 2.92452,-0.27647 4.13476,-0.11133 h 0.008 l 0.006,0.002 c 1.23266,0.16298 2.27938,0.43835 3.29101,0.73242 l 11.79883,13.55078 12.91406,-11.24414 -13.85742,-15.91406 -0.53906,-0.28711 c -3.66308,-1.9477 -7.41256,-3.18115 -11.20117,-3.625 -1.82414,-0.213705 -3.62618,-0.29264 -5.40039,-0.23828 z m 41.48046,35.855469 -2.94531,1.5 -55.44336,28.23437 18.75196,36.82422 15.25976,-7.76953 -10.98242,-21.5664 7.81836,-3.98047 7.49023,14.71093 14.45508,-7.35742 -7.49219,-14.71289 5.59766,-2.85156 10.62305,20.85937 15.25976,-7.77343 z m -415.656243,7.38867 -1.373046,3.00391 -15.47461,33.85937 59.59375,27.23438 17.175779,-37.58399 -15.572263,-7.11718 -10.058594,22.00976 -7.980469,-3.64648 6.863281,-15.01563 -14.751953,-6.74219 -6.861328,15.01758 -5.716797,-2.61328 9.728516,-21.28906 z m 440.523433,46.83008 -3.22656,0.70898 -60.76953,13.35352 3.67383,16.72461 23.52539,-5.16992 0.51367,2.34179 -21.67969,13.56446 4.19336,19.08203 25.2832,-18.01758 c 2.28592,1.49793 4.78187,2.66227 7.58008,3.13086 3.64739,0.67979 7.37454,0.60571 11.08203,-0.20898 3.45689,-0.75961 6.66829,-2.12211 9.55664,-4.05665 3.06523,-1.93481 5.4772,-4.4935 6.98047,-7.57226 l 0.50391,-1.0332 z m -463.181636,5.50195 -0.695312,4.18555 -2.3125,13.88672 39.550781,15.8418 -42.515625,1.99804 -3.041015,18.28516 67.296874,-5.25586 3.628907,-21.81836 z m 450.476556,14.35938 1.70313,7.75 c -0.29583,0.17862 -0.45703,0.36935 -0.82227,0.53906 l -0.0996,0.0469 -0.0976,0.0547 c -0.8782,0.48244 -1.85815,0.84842 -2.97461,1.09375 -1.09712,0.24108 -2.17906,0.28366 -3.31836,0.12695 l -0.0762,-0.01 -0.0781,-0.008 c -0.55998,-0.0503 -0.8581,-0.29832 -1.21875,-0.49023 l -1.58594,-7.2207 z"
     id="path855"
     inkscape:connector-curvature="0"
     sodipodi:nodetypes="ccccccccccccccccccccccccccccccccccccccccccccccccccccccccccccccccccccccccccccccscccccccccccccccccccccccccccccccccccccccccccccccccccccccccccccccccsccccscccscccccccccccccccccccscccccccccccccccccccccccccccccccccsccccccccccccccccccccccccccccccccccccccccccccccccccscccccccccccccccccccccccccccccccccccccccccccccccccccccccccccccccccc" />
  <g
     aria-label="TRAINING"
     style="font-style:normal;font-variant:normal;font-weight:normal;font-stretch:normal;font-size:88.97171783px;line-height:1.25;font-family:Adetar;-inkscape-font-specification:Adetar;letter-spacing:0px;word-spacing:0px;fill:#f1c40f;fill-opacity:1;stroke:none;stroke-width:2.22429299"
     id="text998"
     transform="translate(528.54068,160.82695)">
    <path
       d="m -372.02052,257.67621 -21.56561,31.38475 -7.18623,-4.93792 21.56561,-31.38475 -8.87279,-6.09682 4.68599,-6.81959 24.63849,16.93002 -4.68598,6.81958 z"
       style="font-style:normal;font-variant:normal;font-weight:normal;font-stretch:normal;font-family:Affluent;-inkscape-font-specification:Affluent;letter-spacing:9.81999779px;stroke-width:2.22429299;fill:#f1c40f;fill-opacity:1"
       id="path1004"
       inkscape:connector-curvature="0" />
    <path
       d="m -348.26685,270.61119 -4.97662,11.02937 8.75862,3.95202 q 1.61899,-0.34319 2.80085,-1.6645 1.26295,-1.28472 1.9948,-2.90668 0.69527,-1.54087 0.91185,-3.10251 0.33428,-1.60614 0.1612,-2.95316 z m -7.68943,17.9069 -7.79426,17.27394 -7.54214,-3.40313 19.06484,-42.25221 20.92336,9.44093 q 1.51022,2.92645 1.21848,6.60159 -0.17406,3.63062 -1.71095,7.03675 -1.64668,3.64943 -4.48906,6.27128 -2.76128,2.65845 -6.31575,3.39725 l -0.46871,22.2387 -8.75862,-3.95202 1.63079,-20.05499 z"
       style="font-style:normal;font-variant:normal;font-weight:normal;font-stretch:normal;font-family:Affluent;-inkscape-font-specification:Affluent;letter-spacing:9.81999779px;stroke-width:2.22429299;fill:#f1c40f;fill-opacity:1"
       id="path1006"
       inkscape:connector-curvature="0" />
    <path
       d="m -313.33841,302.72881 8.83624,2.06845 0.47265,-18.80438 -1.21282,-0.2839 z m 17.03034,-22.78685 0.60994,47.75013 -9.09613,-2.12928 0.16277,-13.57705 -11.69503,-2.73765 -5.96697,12.21836 -9.00951,-2.109 22.00045,-42.45735 z"
       style="font-style:normal;font-variant:normal;font-weight:normal;font-stretch:normal;font-family:Affluent;-inkscape-font-specification:Affluent;letter-spacing:9.81999779px;stroke-width:2.22429299;fill:#f1c40f;fill-opacity:1"
       id="path1008"
       inkscape:connector-curvature="0" />
    <path
       d="m -277.24838,282.55067 8.17072,0.48998 -2.77479,46.27114 -8.17072,-0.48998 z"
       style="font-style:normal;font-variant:normal;font-weight:normal;font-stretch:normal;font-family:Affluent;-inkscape-font-specification:Affluent;letter-spacing:9.81999779px;stroke-width:2.22429299;fill:#f1c40f;fill-opacity:1"
       id="path1010"
       inkscape:connector-curvature="0" />
    <path
       d="m -228.86614,312.83901 -4.18548,-32.29354 7.5881,-0.98347 5.95802,45.96977 -8.99984,1.16644 -21.19991,-29.2809 4.08256,31.49944 -7.49986,0.97203 -5.95802,-45.96977 8.29397,-1.07496 z"
       style="font-style:normal;font-variant:normal;font-weight:normal;font-stretch:normal;font-family:Affluent;-inkscape-font-specification:Affluent;letter-spacing:9.81999779px;stroke-width:2.22429299;fill:#f1c40f;fill-opacity:1"
       id="path1012"
       inkscape:connector-curvature="0" />
    <path
       d="m -215.90158,276.1321 7.78231,-2.53701 14.36721,44.07155 -7.78231,2.53701 z"
       style="font-style:normal;font-variant:normal;font-weight:normal;font-stretch:normal;font-family:Affluent;-inkscape-font-specification:Affluent;letter-spacing:9.81999779px;stroke-width:2.22429299;fill:#f1c40f;fill-opacity:1"
       id="path1014"
       inkscape:connector-curvature="0" />
    <path
       d="m -159.32311,286.88944 -15.13659,-28.83184 6.77469,-3.55669 21.54689,41.04205 -8.0351,4.21839 -30.04683,-20.09964 14.76438,28.12286 -6.69592,3.51533 -21.54689,-41.04205 7.4049,-3.88754 z"
       style="font-style:normal;font-variant:normal;font-weight:normal;font-stretch:normal;font-family:Affluent;-inkscape-font-specification:Affluent;letter-spacing:9.81999779px;stroke-width:2.22429299;fill:#f1c40f;fill-opacity:1"
       id="path1016"
       inkscape:connector-curvature="0" />
    <path
       d="m -132.12781,261.24569 q -0.6348,-0.5195 -1.25465,-1.16394 -0.61985,-0.64444 -1.16975,-1.34387 -1.37476,-1.74857 -2.1948,-3.36739 l 14.05853,-11.05309 16.7721,21.33259 -13.56893,10.66815 q -4.04223,1.48042 -7.97498,1.51663 -3.91779,-0.0887 -7.45114,-1.27194 -3.58835,-1.25317 -6.62728,-3.391 -2.969,-2.19282 -5.11362,-4.92059 -1.92467,-2.44801 -3.38482,-5.60075 -1.51515,-3.22269 -2.04096,-6.7705 -0.51085,-3.67275 0.0776,-7.53073 0.65841,-3.91297 3.02584,-7.81149 l 13.35909,-10.50319 5.11412,6.5047 -12.51978,9.84329 q -0.63913,1.63427 -0.93336,3.56326 -0.29422,1.929 -0.10367,4.04273 0.19055,2.11374 1.11575,4.44212 0.94015,2.20345 2.80983,4.58151 2.25461,2.86766 4.49377,4.27615 2.23917,1.4085 4.40307,1.85757 2.16391,0.44906 4.15271,0.24356 1.9888,-0.2055 3.67274,-0.51086 l 5.87521,-4.6192 -7.03878,-8.95269 z"
       style="font-style:normal;font-variant:normal;font-weight:normal;font-stretch:normal;font-family:Affluent;-inkscape-font-specification:Affluent;letter-spacing:9.81999779px;stroke-width:2.22429299;fill:#f1c40f;fill-opacity:1"
       id="path1018"
       inkscape:connector-curvature="0" />
  </g>
</svg>
